<svg width="48" height="48" viewBox="0 0 48 48" fill="none" xmlns="http://www.w3.org/2000/svg">
<path d="M35.954 16.5715C35.0555 16.9671 34.1036 17.2282 33.129 17.3465C34.1551 16.7297 34.9234 15.7625 35.292 14.6235C34.3219 15.1863 33.2653 15.5847 32.165 15.8025C31.491 15.082 30.6158 14.5809 29.6533 14.3642C28.6908 14.1476 27.6854 14.2253 26.7677 14.5874C25.8499 14.9495 25.0622 15.5792 24.507 16.3947C23.9517 17.2102 23.6545 18.1739 23.654 19.1605C23.654 19.5387 23.6966 19.9158 23.781 20.2845C21.8258 20.191 19.9122 19.6867 18.1649 18.8043C16.4177 17.922 14.8759 16.6814 13.64 15.1635C13.1988 15.9133 12.9687 16.7685 12.974 17.6385C12.9727 18.4492 13.1718 19.2477 13.5535 19.963C13.9352 20.6783 14.4878 21.2882 15.162 21.7385C14.3805 21.7125 13.6166 21.4999 12.934 21.1185V21.1795C12.9345 22.3152 13.3276 23.4158 14.0468 24.2948C14.7659 25.1738 15.7669 25.7771 16.88 26.0025C16.1585 26.1969 15.4023 26.226 14.668 26.0875C14.984 27.0648 15.597 27.9192 16.4215 28.5316C17.2461 29.1441 18.2411 29.4842 19.268 29.5045C17.5274 30.8681 15.3792 31.6077 13.168 31.6045C12.7779 31.607 12.3879 31.5876 12 31.5465C14.2558 32.9905 16.8786 33.7572 19.557 33.7555C21.398 33.7688 23.2234 33.4162 24.927 32.7182C26.6306 32.0202 28.1786 30.9907 29.4811 29.6895C30.7836 28.3883 31.8146 26.8414 32.5143 25.1384C33.214 23.4355 33.5684 21.6105 33.557 19.7695C33.557 19.5605 33.557 19.3495 33.542 19.1395C34.5073 18.4441 35.3398 17.5811 36 16.5915L35.953 16.5715H35.954Z" fill="white"/>
</svg>
