<svg width="48" height="48" viewBox="0 0 48 48" fill="none" xmlns="http://www.w3.org/2000/svg">
<path d="M36 24.0732C36.0001 21.78 35.3431 19.5348 34.1067 17.6033C32.8704 15.6719 31.1065 14.1352 29.0239 13.1751C26.9414 12.215 24.6273 11.8717 22.3557 12.186C20.0841 12.5002 17.9501 13.4588 16.2063 14.9482C14.4626 16.4376 13.1821 18.3954 12.5165 20.5899C11.851 22.7845 11.8281 25.1238 12.4508 27.3309C13.0734 29.538 14.3154 31.5204 16.0297 33.0436C17.7441 34.5667 19.859 35.5667 22.124 35.9252V27.5412H19.078V24.0732H22.125V21.4292C22.125 18.4222 23.916 16.7612 26.657 16.7612C27.5568 16.7736 28.4546 16.8519 29.343 16.9952V19.9472H27.829C27.5712 19.9131 27.309 19.9373 27.0618 20.0182C26.8147 20.099 26.5889 20.2345 26.4011 20.4144C26.2134 20.5944 26.0685 20.8143 25.9773 21.0578C25.8861 21.3013 25.8507 21.5622 25.874 21.8212V24.0732H29.2L28.668 27.5422H25.868V35.9272C28.692 35.4822 31.2644 34.0436 33.1219 31.8703C34.9795 29.6971 36.0001 26.9321 36 24.0732Z" fill="white"/>
</svg>
