<svg width="48" height="48" viewBox="0 0 48 48" fill="none" xmlns="http://www.w3.org/2000/svg">
<path d="M24 12C20.74 12 20.333 12.015 19.053 12.072C18.0575 12.0928 17.0727 12.2814 16.14 12.63C15.339 12.931 14.6134 13.4034 14.014 14.014C13.4028 14.613 12.9304 15.3387 12.63 16.14C12.281 17.0726 12.0923 18.0575 12.072 19.053C12.012 20.333 12 20.74 12 24C12 27.26 12.015 27.667 12.072 28.947C12.0929 29.9425 12.2815 30.9273 12.63 31.86C12.9313 32.6609 13.4036 33.3864 14.014 33.986C14.6133 34.5968 15.3389 35.0692 16.14 35.37C17.0727 35.7184 18.0575 35.907 19.053 35.928C20.333 35.988 20.74 36 24 36C27.26 36 27.667 35.985 28.947 35.928C29.9424 35.9066 30.9271 35.718 31.86 35.37C32.6574 35.0619 33.3815 34.5904 33.986 33.986C34.5904 33.3815 35.0619 32.6574 35.37 31.86C35.7185 30.9273 35.9071 29.9425 35.928 28.947C35.988 27.667 36 27.26 36 24C36 20.74 35.985 20.333 35.928 19.053C35.9067 18.0576 35.7181 17.0728 35.37 16.14C35.0686 15.3392 34.5963 14.6137 33.986 14.014C33.3872 13.4026 32.6614 12.9302 31.86 12.63C30.9274 12.281 29.9425 12.0924 28.947 12.072C27.667 12.012 27.26 12 24 12ZM24 14.16C27.2 14.16 27.585 14.176 28.85 14.231C29.6107 14.2402 30.3641 14.3806 31.077 14.646C31.5954 14.8442 32.0662 15.1494 32.4587 15.5417C32.8512 15.934 33.1566 16.4047 33.355 16.923C33.6195 17.6361 33.7592 18.3895 33.768 19.15C33.825 20.416 33.838 20.796 33.838 24C33.838 27.204 33.823 27.585 33.764 28.85C33.7501 29.6108 33.6078 30.3637 33.343 31.077C33.1475 31.5979 32.8403 32.0696 32.443 32.459C32.0555 32.8577 31.5841 33.1652 31.063 33.359C30.3471 33.6234 29.5911 33.7631 28.828 33.772C27.554 33.829 27.179 33.842 23.969 33.842C20.759 33.842 20.383 33.827 19.11 33.768C18.3463 33.7542 17.5904 33.6119 16.874 33.347C16.3528 33.1539 15.8816 32.8464 15.495 32.447C15.0936 32.0617 14.7857 31.5897 14.595 31.067C14.3307 30.3508 14.1887 29.5953 14.175 28.832C14.13 27.572 14.114 27.183 14.114 23.988C14.114 20.793 14.13 20.402 14.175 19.127C14.1899 18.3627 14.3336 17.6065 14.6 16.89C14.7877 16.3655 15.096 15.8925 15.5 15.509C15.8827 15.105 16.3551 14.7967 16.879 14.609C17.59 14.3435 18.3412 14.2018 19.1 14.19C20.375 14.145 20.75 14.13 23.959 14.13L24 14.16ZM24 17.838C22.7813 17.838 21.5899 18.1994 20.5766 18.8765C19.5632 19.5536 18.7734 20.5159 18.3071 21.6419C17.8407 22.7679 17.7186 24.0068 17.9564 25.2021C18.1942 26.3975 18.781 27.4954 19.6428 28.3572C20.5046 29.219 21.6025 29.8058 22.7979 30.0436C23.9932 30.2814 25.2321 30.1593 26.3581 29.6929C27.4841 29.2266 28.4464 28.4368 29.1235 27.4234C29.8006 26.4101 30.162 25.2187 30.162 24C30.162 22.3657 29.5128 20.7984 28.3572 19.6428C27.2016 18.4872 25.6343 17.838 24 17.838ZM24 28C23.2089 28 22.4355 27.7654 21.7777 27.3259C21.1199 26.8864 20.6072 26.2616 20.3045 25.5307C20.0017 24.7998 19.9225 23.9956 20.0769 23.2196C20.2312 22.4437 20.6122 21.731 21.1716 21.1716C21.731 20.6122 22.4437 20.2312 23.2196 20.0769C23.9956 19.9225 24.7998 20.0017 25.5307 20.3045C26.2616 20.6072 26.8864 21.1199 27.3259 21.7777C27.7654 22.4355 28 23.2089 28 24C28 25.0609 27.5786 26.0783 26.8284 26.8284C26.0783 27.5786 25.0609 28 24 28ZM31.846 17.6C31.8462 17.8848 31.7619 18.1634 31.6038 18.4003C31.4457 18.6372 31.2209 18.822 30.9578 18.9311C30.6947 19.0402 30.4051 19.0689 30.1257 19.0135C29.8463 18.958 29.5896 18.8209 29.3881 18.6196C29.1866 18.4182 29.0494 18.1617 28.9937 17.8823C28.9381 17.6029 28.9666 17.3134 29.0755 17.0502C29.1845 16.787 29.369 16.562 29.6059 16.4038C29.8427 16.2455 30.1212 16.161 30.406 16.161C30.7877 16.1613 31.1536 16.3129 31.4236 16.5827C31.6936 16.8525 31.8455 17.2183 31.846 17.6Z" fill="white"/>
</svg>
